<svg width="156" height="80" viewBox="0 0 156 80" fill="none" xmlns="http://www.w3.org/2000/svg">
<path d="M81 25C100.967 25 119.087 27.9211 132.251 32.6748C138.829 35.0502 144.223 37.902 147.991 41.1191C151.756 44.333 154 48.0062 154 52C154 55.9938 151.756 59.667 147.991 62.8809C144.223 66.098 138.829 68.9498 132.251 71.3252C119.087 76.0789 100.967 79 81 79C61.0333 79 42.9133 76.0789 29.749 71.3252C23.1711 68.9498 17.7769 66.098 14.0088 62.8809C10.2444 59.667 8 55.9938 8 52C8 48.0062 10.2444 44.333 14.0088 41.1191C17.7769 37.902 23.1711 35.0502 29.749 32.6748C42.9133 27.9211 61.0333 25 81 25Z" fill="#FDBFBB" stroke="white" stroke-width="2"/>
<path d="M81 29.2998C98.6478 29.2998 114.612 31.8709 126.153 36.0186C131.925 38.0929 136.575 40.5565 139.776 43.2764C142.979 45.9972 144.7 48.9462 144.7 52C144.7 55.0538 142.979 58.0028 139.776 60.7236C136.575 63.4435 131.925 65.9071 126.153 67.9814C114.612 72.1291 98.6478 74.7002 81 74.7002C63.3522 74.7002 47.3881 72.1291 35.8467 67.9814C30.0747 65.9071 25.4248 63.4435 22.2236 60.7236C19.0214 58.0028 17.2998 55.0538 17.2998 52C17.2998 48.9462 19.0214 45.9972 22.2236 43.2764C25.4248 40.5565 30.0747 38.0929 35.8467 36.0186C47.3881 31.8709 63.3522 29.2998 81 29.2998Z" stroke="white" stroke-width="0.6"/>
<path d="M26.5118 59C24.9278 59 23.7728 58.01 23.7728 56.646V48.836C23.7728 47.461 24.9278 46.46 26.5118 46.46H35.4218C37.0278 46.46 38.1828 47.461 38.1828 48.836V49.144L33.2768 50.86C33.2768 50.321 32.8478 49.936 32.2538 49.936H29.7018C29.1078 49.936 28.6788 50.332 28.6788 50.882V54.6C28.6788 55.139 29.1078 55.524 29.7018 55.524H32.2538C32.8478 55.524 33.2768 55.139 33.2768 54.6V54.16L38.1828 55.876V56.624C38.1828 57.999 37.0278 59 35.4218 59H26.5118ZM49.5313 59L46.8253 54.93H44.7353V59H39.7193V46.46H51.0383C53.0183 46.46 54.4593 47.78 54.4593 49.606V51.784C54.4593 53.335 53.4253 54.512 51.9073 54.842L55.0313 59H49.5313ZM44.7353 49.87V51.74H48.6073C49.2453 51.74 49.6083 51.454 49.6083 50.948V50.662C49.6083 50.156 49.2453 49.87 48.6073 49.87H44.7353ZM56.1308 59V46.46H69.9908V49.705H61.1468V51.245H66.9108V54.215H61.1468V55.755H69.9908V59H56.1308ZM81.8758 59L81.1278 56.91H75.8918L75.1438 59H70.2048L75.1218 46.46H81.8978L86.8148 59H81.8758ZM76.9808 53.83H80.0278L78.4988 49.562L76.9808 53.83ZM89.1004 59V49.98H84.5134V46.46H98.7034V49.98H94.1164V59H89.1004ZM99.8008 59V46.46H104.817V59H99.8008ZM109.856 59C108.272 59 107.117 58.01 107.117 56.646V48.836C107.117 47.461 108.272 46.46 109.856 46.46H119.096C120.702 46.46 121.857 47.472 121.857 48.836V56.646C121.857 58.01 120.702 59 119.096 59H109.856ZM113.046 55.524H115.906C116.511 55.524 116.951 55.139 116.951 54.6V50.882C116.951 50.332 116.511 49.936 115.906 49.936H113.046C112.452 49.936 112.023 50.332 112.023 50.882V54.6C112.023 55.139 112.452 55.524 113.046 55.524ZM134.334 46.46H138.899V59H133.443L128.735 51.85V59H124.159V46.46H129.615L134.334 53.72V46.46Z" fill="#FEF4D9"/>
<path d="M127 28.1123C128.024 31.3925 130.607 33.9755 133.887 35C130.607 36.0244 128.024 38.607 127 41.8867C125.975 38.6067 123.392 36.0243 120.112 35C123.393 33.9757 125.976 31.3928 127 28.1123Z" fill="#F9DA32" stroke="white"/>
<path d="M33 63.1123C34.0243 66.3925 36.6067 68.9755 39.8867 70C36.607 71.0244 34.0244 73.607 33 76.8867C31.9755 73.6067 29.3925 71.0243 26.1123 70C29.3928 68.9757 31.9757 66.3928 33 63.1123Z" fill="#F9DA32" stroke="white"/>
<path d="M113.5 39.4336C113.521 39.4567 113.542 39.4791 113.565 39.5C113.542 39.5208 113.521 39.5425 113.5 39.5654C113.479 39.5423 113.457 39.5209 113.434 39.5C113.457 39.4789 113.479 39.4569 113.5 39.4336Z" stroke="white"/>
<path d="M43.5 65.4336C43.5209 65.4567 43.5423 65.4791 43.5654 65.5C43.5425 65.5208 43.5208 65.5425 43.5 65.5654C43.4791 65.5423 43.4567 65.5209 43.4336 65.5C43.4569 65.4789 43.4789 65.4569 43.5 65.4336Z" stroke="white"/>
<mask id="path-8-outside-1_82_213" maskUnits="userSpaceOnUse" x="1" y="6" width="154" height="17" fill="black">
<rect fill="white" x="1" y="6" width="154" height="17"/>
<path d="M16.0758 8.46H20.9818L15.7348 16.886V21H10.7188V16.886L5.47176 8.46H10.3778L13.2268 13.839L16.0758 8.46ZM24.1504 21C22.5664 21 21.4114 20.01 21.4114 18.646V10.836C21.4114 9.461 22.5664 8.46 24.1504 8.46H33.3904C34.9964 8.46 36.1514 9.472 36.1514 10.836V18.646C36.1514 20.01 34.9964 21 33.3904 21H24.1504ZM27.3404 17.524H30.2004C30.8054 17.524 31.2454 17.139 31.2454 16.6V12.882C31.2454 12.332 30.8054 11.936 30.2004 11.936H27.3404C26.7464 11.936 26.3174 12.332 26.3174 12.882V16.6C26.3174 17.139 26.7464 17.524 27.3404 17.524ZM41.0277 21C39.4437 21 38.2887 20.01 38.2887 18.646V8.46H43.1947V16.6C43.1947 17.139 43.6237 17.524 44.2177 17.524H47.0777C47.6827 17.524 48.1227 17.139 48.1227 16.6V8.46H53.0287V18.646C53.0287 20.01 51.8737 21 50.2677 21H41.0277ZM65.3217 21L62.6157 16.93H60.5257V21H55.5097V8.46H66.8287C68.8087 8.46 70.2497 9.78 70.2497 11.606V13.784C70.2497 15.335 69.2157 16.512 67.6977 16.842L70.8217 21H65.3217ZM60.5257 11.87V13.74H64.3977C65.0357 13.74 65.3987 13.454 65.3987 12.948V12.662C65.3987 12.156 65.0357 11.87 64.3977 11.87H60.5257ZM87.7494 8.46C89.7294 8.46 91.1704 9.78 91.1704 11.606V17.876C91.1704 19.691 89.7294 21 87.7494 21H76.4304V8.46H87.7494ZM86.2644 16.611V12.893C86.2644 12.343 85.8244 11.947 85.2194 11.947L81.4464 11.925V17.535H85.2194C85.8244 17.535 86.2644 17.15 86.2644 16.611ZM103.298 21L100.592 16.93H98.5024V21H93.4864V8.46H104.805C106.785 8.46 108.226 9.78 108.226 11.606V13.784C108.226 15.335 107.192 16.512 105.674 16.842L108.798 21H103.298ZM98.5024 11.87V13.74H102.374C103.012 13.74 103.375 13.454 103.375 12.948V12.662C103.375 12.156 103.012 11.87 102.374 11.87H98.5024ZM109.898 21V8.46H114.914V21H109.898ZM127.719 8.46H132.284V21H126.828L122.12 13.85V21H117.544V8.46H123L127.719 15.72V8.46ZM144.954 13.96L150.245 21H144.657L141.269 16.446H139.938V21H134.922V8.46H139.938V13.795L143.997 8.46H149.475L144.954 13.96Z"/>
</mask>
<path d="M16.0758 8.46H20.9818L15.7348 16.886V21H10.7188V16.886L5.47176 8.46H10.3778L13.2268 13.839L16.0758 8.46ZM24.1504 21C22.5664 21 21.4114 20.01 21.4114 18.646V10.836C21.4114 9.461 22.5664 8.46 24.1504 8.46H33.3904C34.9964 8.46 36.1514 9.472 36.1514 10.836V18.646C36.1514 20.01 34.9964 21 33.3904 21H24.1504ZM27.3404 17.524H30.2004C30.8054 17.524 31.2454 17.139 31.2454 16.6V12.882C31.2454 12.332 30.8054 11.936 30.2004 11.936H27.3404C26.7464 11.936 26.3174 12.332 26.3174 12.882V16.6C26.3174 17.139 26.7464 17.524 27.3404 17.524ZM41.0277 21C39.4437 21 38.2887 20.01 38.2887 18.646V8.46H43.1947V16.6C43.1947 17.139 43.6237 17.524 44.2177 17.524H47.0777C47.6827 17.524 48.1227 17.139 48.1227 16.6V8.46H53.0287V18.646C53.0287 20.01 51.8737 21 50.2677 21H41.0277ZM65.3217 21L62.6157 16.93H60.5257V21H55.5097V8.46H66.8287C68.8087 8.46 70.2497 9.78 70.2497 11.606V13.784C70.2497 15.335 69.2157 16.512 67.6977 16.842L70.8217 21H65.3217ZM60.5257 11.87V13.74H64.3977C65.0357 13.74 65.3987 13.454 65.3987 12.948V12.662C65.3987 12.156 65.0357 11.87 64.3977 11.87H60.5257ZM87.7494 8.46C89.7294 8.46 91.1704 9.78 91.1704 11.606V17.876C91.1704 19.691 89.7294 21 87.7494 21H76.4304V8.46H87.7494ZM86.2644 16.611V12.893C86.2644 12.343 85.8244 11.947 85.2194 11.947L81.4464 11.925V17.535H85.2194C85.8244 17.535 86.2644 17.15 86.2644 16.611ZM103.298 21L100.592 16.93H98.5024V21H93.4864V8.46H104.805C106.785 8.46 108.226 9.78 108.226 11.606V13.784C108.226 15.335 107.192 16.512 105.674 16.842L108.798 21H103.298ZM98.5024 11.87V13.74H102.374C103.012 13.74 103.375 13.454 103.375 12.948V12.662C103.375 12.156 103.012 11.87 102.374 11.87H98.5024ZM109.898 21V8.46H114.914V21H109.898ZM127.719 8.46H132.284V21H126.828L122.12 13.85V21H117.544V8.46H123L127.719 15.72V8.46ZM144.954 13.96L150.245 21H144.657L141.269 16.446H139.938V21H134.922V8.46H139.938V13.795L143.997 8.46H149.475L144.954 13.96Z" fill="#FDBFBB"/>
<path d="M16.0758 8.46V6.46H14.8719L14.3084 7.52389L16.0758 8.46ZM20.9818 8.46L22.6795 9.51721L24.5833 6.46H20.9818V8.46ZM15.7348 16.886L14.037 15.8288L13.7348 16.3142V16.886H15.7348ZM15.7348 21V23H17.7348V21H15.7348ZM10.7188 21H8.71876V23H10.7188V21ZM10.7188 16.886H12.7188V16.3142L12.4165 15.8288L10.7188 16.886ZM5.47176 8.46V6.46H1.87025L3.77402 9.51721L5.47176 8.46ZM10.3778 8.46L12.1452 7.52389L11.5817 6.46H10.3778V8.46ZM13.2268 13.839L11.4594 14.7751L13.2268 18.112L14.9942 14.7751L13.2268 13.839ZM16.0758 8.46V10.46H20.9818V8.46V6.46H16.0758V8.46ZM20.9818 8.46L19.284 7.40279L14.037 15.8288L15.7348 16.886L17.4325 17.9432L22.6795 9.51721L20.9818 8.46ZM15.7348 16.886H13.7348V21H15.7348H17.7348V16.886H15.7348ZM15.7348 21V19H10.7188V21V23H15.7348V21ZM10.7188 21H12.7188V16.886H10.7188H8.71876V21H10.7188ZM10.7188 16.886L12.4165 15.8288L7.1695 7.40279L5.47176 8.46L3.77402 9.51721L9.02102 17.9432L10.7188 16.886ZM5.47176 8.46V10.46H10.3778V8.46V6.46H5.47176V8.46ZM10.3778 8.46L8.61036 9.39611L11.4594 14.7751L13.2268 13.839L14.9942 12.9029L12.1452 7.52389L10.3778 8.46ZM13.2268 13.839L14.9942 14.7751L17.8432 9.39611L16.0758 8.46L14.3084 7.52389L11.4594 12.9029L13.2268 13.839ZM24.1504 21V19C23.7697 19 23.5664 18.8828 23.4899 18.8172C23.4518 18.7845 23.436 18.7583 23.4285 18.7424C23.4218 18.7279 23.4114 18.7 23.4114 18.646H21.4114H19.4114C19.4114 21.3895 21.7585 23 24.1504 23V21ZM21.4114 18.646H23.4114V10.836H21.4114H19.4114V18.646H21.4114ZM21.4114 10.836H23.4114C23.4114 10.7446 23.4361 10.6964 23.4973 10.6433C23.5745 10.5764 23.7755 10.46 24.1504 10.46V8.46V6.46C21.7389 6.46 19.4114 8.09845 19.4114 10.836H21.4114ZM24.1504 8.46V10.46H33.3904V8.46V6.46H24.1504V8.46ZM33.3904 8.46V10.46C33.7772 10.46 33.9844 10.5796 34.0646 10.649C34.1299 10.7055 34.1514 10.754 34.1514 10.836H36.1514H38.1514C38.1514 8.10534 35.8193 6.46 33.3904 6.46V8.46ZM36.1514 10.836H34.1514V18.646H36.1514H38.1514V10.836H36.1514ZM36.1514 18.646H34.1514C34.1514 18.7 34.1411 18.7272 34.1349 18.7406C34.1279 18.7554 34.1127 18.7809 34.0744 18.8136C33.9977 18.8791 33.7885 19 33.3904 19V21V23C35.7932 23 38.1514 21.3991 38.1514 18.646H36.1514ZM33.3904 21V19H24.1504V21V23H33.3904V21ZM27.3404 17.524V19.524H30.2004V17.524V15.524H27.3404V17.524ZM30.2004 17.524V19.524C31.6655 19.524 33.2454 18.4732 33.2454 16.6H31.2454H29.2454C29.2454 16.2915 29.3851 15.9773 29.6273 15.7638C29.8536 15.5644 30.0819 15.524 30.2004 15.524V17.524ZM31.2454 16.6H33.2454V12.882H31.2454H29.2454V16.6H31.2454ZM31.2454 12.882H33.2454C33.2454 11.0417 31.7147 9.936 30.2004 9.936V11.936V13.936C30.0666 13.936 29.8325 13.8887 29.6089 13.6866C29.3727 13.4732 29.2454 13.1696 29.2454 12.882H31.2454ZM30.2004 11.936V9.936H27.3404V11.936V13.936H30.2004V11.936ZM27.3404 11.936V9.936C25.7932 9.936 24.3174 11.082 24.3174 12.882H26.3174H28.3174C28.3174 13.1524 28.2008 13.4524 27.9637 13.6715C27.7364 13.8816 27.4905 13.936 27.3404 13.936V11.936ZM26.3174 12.882H24.3174V16.6H26.3174H28.3174V12.882H26.3174ZM26.3174 16.6H24.3174C24.3174 18.4336 25.842 19.524 27.3404 19.524V17.524V15.524C27.4749 15.524 27.7151 15.5711 27.9454 15.7787C28.189 15.9983 28.3174 16.3091 28.3174 16.6H26.3174ZM38.2887 8.46V6.46H36.2887V8.46H38.2887ZM43.1947 8.46H45.1947V6.46H43.1947V8.46ZM48.1227 8.46V6.46H46.1227V8.46H48.1227ZM53.0287 8.46H55.0287V6.46H53.0287V8.46ZM41.0277 21V19C40.647 19 40.4436 18.8828 40.3672 18.8172C40.3291 18.7845 40.3132 18.7583 40.3058 18.7424C40.299 18.7279 40.2887 18.7 40.2887 18.646H38.2887H36.2887C36.2887 21.3895 38.6357 23 41.0277 23V21ZM38.2887 18.646H40.2887V8.46H38.2887H36.2887V18.646H38.2887ZM38.2887 8.46V10.46H43.1947V8.46V6.46H38.2887V8.46ZM43.1947 8.46H41.1947V16.6H43.1947H45.1947V8.46H43.1947ZM43.1947 16.6H41.1947C41.1947 18.4336 42.7193 19.524 44.2177 19.524V17.524V15.524C44.3522 15.524 44.5924 15.5711 44.8226 15.7787C45.0663 15.9983 45.1947 16.3091 45.1947 16.6H43.1947ZM44.2177 17.524V19.524H47.0777V17.524V15.524H44.2177V17.524ZM47.0777 17.524V19.524C48.5427 19.524 50.1227 18.4732 50.1227 16.6H48.1227H46.1227C46.1227 16.2915 46.2624 15.9773 46.5046 15.7638C46.7308 15.5644 46.9591 15.524 47.0777 15.524V17.524ZM48.1227 16.6H50.1227V8.46H48.1227H46.1227V16.6H48.1227ZM48.1227 8.46V10.46H53.0287V8.46V6.46H48.1227V8.46ZM53.0287 8.46H51.0287V18.646H53.0287H55.0287V8.46H53.0287ZM53.0287 18.646H51.0287C51.0287 18.7 51.0184 18.7272 51.0121 18.7406C51.0052 18.7554 50.9899 18.7809 50.9517 18.8136C50.875 18.8791 50.6657 19 50.2677 19V21V23C52.6704 23 55.0287 21.3991 55.0287 18.646H53.0287ZM50.2677 21V19H41.0277V21V23H50.2677V21ZM65.3217 21L63.6562 22.1073L64.2498 23H65.3217V21ZM62.6157 16.93L64.2812 15.8227L63.6877 14.93H62.6157V16.93ZM60.5257 16.93V14.93H58.5257V16.93H60.5257ZM60.5257 21V23H62.5257V21H60.5257ZM55.5097 21H53.5097V23H55.5097V21ZM55.5097 8.46V6.46H53.5097V8.46H55.5097ZM67.6977 16.842L67.2729 14.8876L64.2255 15.5501L66.0987 18.0434L67.6977 16.842ZM70.8217 21V23H74.826L72.4207 19.7986L70.8217 21ZM60.5257 11.87V9.87H58.5257V11.87H60.5257ZM60.5257 13.74H58.5257V15.74H60.5257V13.74ZM65.3217 21L66.9872 19.8927L64.2812 15.8227L62.6157 16.93L60.9502 18.0373L63.6562 22.1073L65.3217 21ZM62.6157 16.93V14.93H60.5257V16.93V18.93H62.6157V16.93ZM60.5257 16.93H58.5257V21H60.5257H62.5257V16.93H60.5257ZM60.5257 21V19H55.5097V21V23H60.5257V21ZM55.5097 21H57.5097V8.46H55.5097H53.5097V21H55.5097ZM55.5097 8.46V10.46H66.8287V8.46V6.46H55.5097V8.46ZM66.8287 8.46V10.46C67.8675 10.46 68.2497 11.0411 68.2497 11.606H70.2497H72.2497C72.2497 8.51887 69.75 6.46 66.8287 6.46V8.46ZM70.2497 11.606H68.2497V13.784H70.2497H72.2497V11.606H70.2497ZM70.2497 13.784H68.2497C68.2497 14.3124 67.9538 14.7396 67.2729 14.8876L67.6977 16.842L68.1226 18.7964C70.4776 18.2844 72.2497 16.3576 72.2497 13.784H70.2497ZM67.6977 16.842L66.0987 18.0434L69.2227 22.2014L70.8217 21L72.4207 19.7986L69.2967 15.6406L67.6977 16.842ZM70.8217 21V19H65.3217V21V23H70.8217V21ZM60.5257 11.87H58.5257V13.74H60.5257H62.5257V11.87H60.5257ZM60.5257 13.74V15.74H64.3977V13.74V11.74H60.5257V13.74ZM64.3977 13.74V15.74C64.98 15.74 65.731 15.6139 66.3776 15.1029C67.0931 14.5374 67.3987 13.7247 67.3987 12.948H65.3987H63.3987C63.3987 12.8343 63.4197 12.6615 63.5076 12.4658C63.5981 12.2643 63.7358 12.0923 63.8974 11.9646C64.2029 11.7231 64.4535 11.74 64.3977 11.74V13.74ZM65.3987 12.948H67.3987V12.662H65.3987H63.3987V12.948H65.3987ZM65.3987 12.662H67.3987C67.3987 11.8853 67.0931 11.0726 66.3776 10.5071C65.731 9.99614 64.98 9.87 64.3977 9.87V11.87V13.87C64.4535 13.87 64.2029 13.8869 63.8974 13.6454C63.7358 13.5177 63.5981 13.3457 63.5076 13.1442C63.4197 12.9485 63.3987 12.7757 63.3987 12.662H65.3987ZM64.3977 11.87V9.87H60.5257V11.87V13.87H64.3977V11.87ZM76.4304 21H74.4304V23H76.4304V21ZM76.4304 8.46V6.46H74.4304V8.46H76.4304ZM85.2194 11.947L85.2077 13.947H85.2194V11.947ZM81.4464 11.925L81.458 9.92503L79.4464 9.9133V11.925H81.4464ZM81.4464 17.535H79.4464V19.535H81.4464V17.535ZM87.7494 8.46V10.46C88.7881 10.46 89.1703 11.0411 89.1703 11.606H91.1703H93.1703C93.1703 8.51887 90.6706 6.46 87.7494 6.46V8.46ZM91.1703 11.606H89.1703V17.876H91.1703H93.1703V11.606H91.1703ZM91.1703 17.876H89.1703C89.1703 18.4166 88.8027 19 87.7494 19V21V23C90.656 23 93.1703 20.9654 93.1703 17.876H91.1703ZM87.7494 21V19H76.4304V21V23H87.7494V21ZM76.4304 21H78.4304V8.46H76.4304H74.4304V21H76.4304ZM76.4304 8.46V10.46H87.7494V8.46V6.46H76.4304V8.46ZM86.2644 16.611H88.2644V12.893H86.2644H84.2644V16.611H86.2644ZM86.2644 12.893H88.2644C88.2644 11.0527 86.7336 9.947 85.2194 9.947V11.947V13.947C85.0856 13.947 84.8514 13.8997 84.6278 13.6976C84.3916 13.4842 84.2644 13.1806 84.2644 12.893H86.2644ZM85.2194 11.947L85.231 9.94703L81.458 9.92503L81.4464 11.925L81.4347 13.925L85.2077 13.947L85.2194 11.947ZM81.4464 11.925H79.4464V17.535H81.4464H83.4464V11.925H81.4464ZM81.4464 17.535V19.535H85.2194V17.535V15.535H81.4464V17.535ZM85.2194 17.535V19.535C86.6844 19.535 88.2644 18.4842 88.2644 16.611H86.2644H84.2644C84.2644 16.3025 84.404 15.9883 84.6462 15.7748C84.8725 15.5754 85.1008 15.535 85.2194 15.535V17.535ZM103.298 21L101.633 22.1073L102.226 23H103.298V21ZM100.592 16.93L102.258 15.8227L101.664 14.93H100.592V16.93ZM98.5024 16.93V14.93H96.5024V16.93H98.5024ZM98.5024 21V23H100.502V21H98.5024ZM93.4864 21H91.4864V23H93.4864V21ZM93.4864 8.46V6.46H91.4864V8.46H93.4864ZM105.674 16.842L105.25 14.8876L102.202 15.5501L104.075 18.0434L105.674 16.842ZM108.798 21V23H112.803L110.397 19.7986L108.798 21ZM98.5024 11.87V9.87H96.5024V11.87H98.5024ZM98.5024 13.74H96.5024V15.74H98.5024V13.74ZM103.298 21L104.964 19.8927L102.258 15.8227L100.592 16.93L98.9269 18.0373L101.633 22.1073L103.298 21ZM100.592 16.93V14.93H98.5024V16.93V18.93H100.592V16.93ZM98.5024 16.93H96.5024V21H98.5024H100.502V16.93H98.5024ZM98.5024 21V19H93.4864V21V23H98.5024V21ZM93.4864 21H95.4864V8.46H93.4864H91.4864V21H93.4864ZM93.4864 8.46V10.46H104.805V8.46V6.46H93.4864V8.46ZM104.805 8.46V10.46C105.844 10.46 106.226 11.0411 106.226 11.606H108.226H110.226C110.226 8.51887 107.727 6.46 104.805 6.46V8.46ZM108.226 11.606H106.226V13.784H108.226H110.226V11.606H108.226ZM108.226 13.784H106.226C106.226 14.3124 105.93 14.7396 105.25 14.8876L105.674 16.842L106.099 18.7964C108.454 18.2844 110.226 16.3576 110.226 13.784H108.226ZM105.674 16.842L104.075 18.0434L107.199 22.2014L108.798 21L110.397 19.7986L107.273 15.6406L105.674 16.842ZM108.798 21V19H103.298V21V23H108.798V21ZM98.5024 11.87H96.5024V13.74H98.5024H100.502V11.87H98.5024ZM98.5024 13.74V15.74H102.374V13.74V11.74H98.5024V13.74ZM102.374 13.74V15.74C102.957 15.74 103.708 15.6139 104.354 15.1029C105.07 14.5374 105.375 13.7247 105.375 12.948H103.375H101.375C101.375 12.8343 101.396 12.6615 101.484 12.4658C101.575 12.2643 101.712 12.0923 101.874 11.9646C102.18 11.7231 102.43 11.74 102.374 11.74V13.74ZM103.375 12.948H105.375V12.662H103.375H101.375V12.948H103.375ZM103.375 12.662H105.375C105.375 11.8853 105.07 11.0726 104.354 10.5071C103.708 9.99614 102.957 9.87 102.374 9.87V11.87V13.87C102.43 13.87 102.18 13.8869 101.874 13.6454C101.712 13.5177 101.575 13.3457 101.484 13.1442C101.396 12.9485 101.375 12.7757 101.375 12.662H103.375ZM102.374 11.87V9.87H98.5024V11.87V13.87H102.374V11.87ZM109.898 21H107.898V23H109.898V21ZM109.898 8.46V6.46H107.898V8.46H109.898ZM114.914 8.46H116.914V6.46H114.914V8.46ZM114.914 21V23H116.914V21H114.914ZM109.898 21H111.898V8.46H109.898H107.898V21H109.898ZM109.898 8.46V10.46H114.914V8.46V6.46H109.898V8.46ZM114.914 8.46H112.914V21H114.914H116.914V8.46H114.914ZM114.914 21V19H109.898V21V23H114.914V21ZM127.719 8.46V6.46H125.719V8.46H127.719ZM132.284 8.46H134.284V6.46H132.284V8.46ZM132.284 21V23H134.284V21H132.284ZM126.828 21L125.157 22.0999L125.75 23H126.828V21ZM122.12 13.85L123.79 12.7501L120.12 7.1759V13.85H122.12ZM122.12 21V23H124.12V21H122.12ZM117.544 21H115.544V23H117.544V21ZM117.544 8.46V6.46H115.544V8.46H117.544ZM123 8.46L124.677 7.37002L124.085 6.46H123V8.46ZM127.719 15.72L126.042 16.81L129.719 22.4667V15.72H127.719ZM127.719 8.46V10.46H132.284V8.46V6.46H127.719V8.46ZM132.284 8.46H130.284V21H132.284H134.284V8.46H132.284ZM132.284 21V19H126.828V21V23H132.284V21ZM126.828 21L128.498 19.9001L123.79 12.7501L122.12 13.85L120.449 14.9499L125.157 22.0999L126.828 21ZM122.12 13.85H120.12V21H122.12H124.12V13.85H122.12ZM122.12 21V19H117.544V21V23H122.12V21ZM117.544 21H119.544V8.46H117.544H115.544V21H117.544ZM117.544 8.46V10.46H123V8.46V6.46H117.544V8.46ZM123 8.46L121.323 9.54998L126.042 16.81L127.719 15.72L129.396 14.63L124.677 7.37002L123 8.46ZM127.719 15.72H129.719V8.46H127.719H125.719V15.72H127.719ZM144.954 13.96L143.409 12.69L142.411 13.9047L143.355 15.1616L144.954 13.96ZM150.245 21V23H154.25L151.844 19.7984L150.245 21ZM144.657 21L143.052 22.1938L143.652 23H144.657V21ZM141.269 16.446L142.874 15.2522L142.274 14.446H141.269V16.446ZM139.938 16.446V14.446H137.938V16.446H139.938ZM139.938 21V23H141.938V21H139.938ZM134.922 21H132.922V23H134.922V21ZM134.922 8.46V6.46H132.922V8.46H134.922ZM139.938 8.46H141.938V6.46H139.938V8.46ZM139.938 13.795H137.938V19.7268L141.53 15.006L139.938 13.795ZM143.997 8.46V6.46H143.006L142.405 7.249L143.997 8.46ZM149.475 8.46L151.02 9.73L153.708 6.46H149.475V8.46ZM144.954 13.96L143.355 15.1616L148.646 22.2016L150.245 21L151.844 19.7984L146.553 12.7584L144.954 13.96ZM150.245 21V19H144.657V21V23H150.245V21ZM144.657 21L146.262 19.8062L142.874 15.2522L141.269 16.446L139.664 17.6398L143.052 22.1938L144.657 21ZM141.269 16.446V14.446H139.938V16.446V18.446H141.269V16.446ZM139.938 16.446H137.938V21H139.938H141.938V16.446H139.938ZM139.938 21V19H134.922V21V23H139.938V21ZM134.922 21H136.922V8.46H134.922H132.922V21H134.922ZM134.922 8.46V10.46H139.938V8.46V6.46H134.922V8.46ZM139.938 8.46H137.938V13.795H139.938H141.938V8.46H139.938ZM139.938 13.795L141.53 15.006L145.589 9.671L143.997 8.46L142.405 7.249L138.346 12.584L139.938 13.795ZM143.997 8.46V10.46H149.475V8.46V6.46H143.997V8.46ZM149.475 8.46L147.93 7.18999L143.409 12.69L144.954 13.96L146.499 15.23L151.02 9.73L149.475 8.46Z" fill="white" mask="url(#path-8-outside-1_82_213)"/>
<mask id="path-10-outside-2_82_213" maskUnits="userSpaceOnUse" x="2" y="23" width="74" height="17" fill="black">
<rect fill="white" x="2" y="23" width="74" height="17"/>
<path d="M16.5993 25.46H21.5053L16.2583 33.886V38H11.2423V33.886L5.99527 25.46H10.9013L13.7503 30.839L16.5993 25.46ZM24.674 38C23.09 38 21.935 37.01 21.935 35.646V27.836C21.935 26.461 23.09 25.46 24.674 25.46H33.914C35.52 25.46 36.675 26.472 36.675 27.836V35.646C36.675 37.01 35.52 38 33.914 38H24.674ZM27.864 34.524H30.724C31.329 34.524 31.769 34.139 31.769 33.6V29.882C31.769 29.332 31.329 28.936 30.724 28.936H27.864C27.27 28.936 26.841 29.332 26.841 29.882V33.6C26.841 34.139 27.27 34.524 27.864 34.524ZM41.5512 38C39.9672 38 38.8122 37.01 38.8122 35.646V25.46H43.7182V33.6C43.7182 34.139 44.1472 34.524 44.7412 34.524H47.6012C48.2062 34.524 48.6462 34.139 48.6462 33.6V25.46H53.5522V35.646C53.5522 37.01 52.3972 38 50.7912 38H41.5512ZM65.8452 38L63.1392 33.93H61.0492V38H56.0332V25.46H67.3522C69.3322 25.46 70.7732 26.78 70.7732 28.606V30.784C70.7732 32.335 69.7392 33.512 68.2212 33.842L71.3452 38H65.8452ZM61.0492 28.87V30.74H64.9212C65.5592 30.74 65.9222 30.454 65.9222 29.948V29.662C65.9222 29.156 65.5592 28.87 64.9212 28.87H61.0492Z"/>
</mask>
<path d="M16.5993 25.46H21.5053L16.2583 33.886V38H11.2423V33.886L5.99527 25.46H10.9013L13.7503 30.839L16.5993 25.46ZM24.674 38C23.09 38 21.935 37.01 21.935 35.646V27.836C21.935 26.461 23.09 25.46 24.674 25.46H33.914C35.52 25.46 36.675 26.472 36.675 27.836V35.646C36.675 37.01 35.52 38 33.914 38H24.674ZM27.864 34.524H30.724C31.329 34.524 31.769 34.139 31.769 33.6V29.882C31.769 29.332 31.329 28.936 30.724 28.936H27.864C27.27 28.936 26.841 29.332 26.841 29.882V33.6C26.841 34.139 27.27 34.524 27.864 34.524ZM41.5512 38C39.9672 38 38.8122 37.01 38.8122 35.646V25.46H43.7182V33.6C43.7182 34.139 44.1472 34.524 44.7412 34.524H47.6012C48.2062 34.524 48.6462 34.139 48.6462 33.6V25.46H53.5522V35.646C53.5522 37.01 52.3972 38 50.7912 38H41.5512ZM65.8452 38L63.1392 33.93H61.0492V38H56.0332V25.46H67.3522C69.3322 25.46 70.7732 26.78 70.7732 28.606V30.784C70.7732 32.335 69.7392 33.512 68.2212 33.842L71.3452 38H65.8452ZM61.0492 28.87V30.74H64.9212C65.5592 30.74 65.9222 30.454 65.9222 29.948V29.662C65.9222 29.156 65.5592 28.87 64.9212 28.87H61.0492Z" fill="#F9DA32"/>
<path d="M16.5993 25.46V23.46H15.3954L14.8319 24.5239L16.5993 25.46ZM21.5053 25.46L23.203 26.5172L25.1068 23.46H21.5053V25.46ZM16.2583 33.886L14.5605 32.8288L14.2583 33.3142V33.886H16.2583ZM16.2583 38V40H18.2583V38H16.2583ZM11.2423 38H9.24227V40H11.2423V38ZM11.2423 33.886H13.2423V33.3142L12.94 32.8288L11.2423 33.886ZM5.99527 25.46V23.46H2.39377L4.29754 26.5172L5.99527 25.46ZM10.9013 25.46L12.6687 24.5239L12.1052 23.46H10.9013V25.46ZM13.7503 30.839L11.9829 31.7751L13.7503 35.112L15.5177 31.7751L13.7503 30.839ZM16.5993 25.46V27.46H21.5053V25.46V23.46H16.5993V25.46ZM21.5053 25.46L19.8075 24.4028L14.5605 32.8288L16.2583 33.886L17.956 34.9432L23.203 26.5172L21.5053 25.46ZM16.2583 33.886H14.2583V38H16.2583H18.2583V33.886H16.2583ZM16.2583 38V36H11.2423V38V40H16.2583V38ZM11.2423 38H13.2423V33.886H11.2423H9.24227V38H11.2423ZM11.2423 33.886L12.94 32.8288L7.69301 24.4028L5.99527 25.46L4.29754 26.5172L9.54454 34.9432L11.2423 33.886ZM5.99527 25.46V27.46H10.9013V25.46V23.46H5.99527V25.46ZM10.9013 25.46L9.13387 26.3961L11.9829 31.7751L13.7503 30.839L15.5177 29.9029L12.6687 24.5239L10.9013 25.46ZM13.7503 30.839L15.5177 31.7751L18.3667 26.3961L16.5993 25.46L14.8319 24.5239L11.9829 29.9029L13.7503 30.839ZM24.674 38V36C24.2932 36 24.0899 35.8828 24.0135 35.8172C23.9753 35.7845 23.9595 35.7583 23.952 35.7424C23.9453 35.7279 23.935 35.7 23.935 35.646H21.935H19.935C19.935 38.3895 22.282 40 24.674 40V38ZM21.935 35.646H23.935V27.836H21.935H19.935V35.646H21.935ZM21.935 27.836H23.935C23.935 27.7446 23.9597 27.6964 24.0208 27.6433C24.098 27.5764 24.299 27.46 24.674 27.46V25.46V23.46C22.2624 23.46 19.935 25.0985 19.935 27.836H21.935ZM24.674 25.46V27.46H33.914V25.46V23.46H24.674V25.46ZM33.914 25.46V27.46C34.3007 27.46 34.508 27.5796 34.5881 27.649C34.6534 27.7055 34.675 27.754 34.675 27.836H36.675H38.675C38.675 25.1053 36.3428 23.46 33.914 23.46V25.46ZM36.675 27.836H34.675V35.646H36.675H38.675V27.836H36.675ZM36.675 35.646H34.675C34.675 35.7 34.6647 35.7272 34.6584 35.7406C34.6515 35.7554 34.6362 35.7809 34.5979 35.8136C34.5212 35.8791 34.312 36 33.914 36V38V40C36.3167 40 38.675 38.3991 38.675 35.646H36.675ZM33.914 38V36H24.674V38V40H33.914V38ZM27.864 34.524V36.524H30.724V34.524V32.524H27.864V34.524ZM30.724 34.524V36.524C32.189 36.524 33.769 35.4732 33.769 33.6H31.769H29.769C29.769 33.2915 29.9086 32.9773 30.1508 32.7638C30.3771 32.5644 30.6054 32.524 30.724 32.524V34.524ZM31.769 33.6H33.769V29.882H31.769H29.769V33.6H31.769ZM31.769 29.882H33.769C33.769 28.0417 32.2382 26.936 30.724 26.936V28.936V30.936C30.5902 30.936 30.356 30.8887 30.1324 30.6866C29.8962 30.4732 29.769 30.1696 29.769 29.882H31.769ZM30.724 28.936V26.936H27.864V28.936V30.936H30.724V28.936ZM27.864 28.936V26.936C26.3167 26.936 24.841 28.082 24.841 29.882H26.841H28.841C28.841 30.1524 28.7243 30.4524 28.4872 30.6715C28.2599 30.8816 28.0141 30.936 27.864 30.936V28.936ZM26.841 29.882H24.841V33.6H26.841H28.841V29.882H26.841ZM26.841 33.6H24.841C24.841 35.4336 26.3655 36.524 27.864 36.524V34.524V32.524C27.9984 32.524 28.2386 32.5711 28.4689 32.7787C28.7125 32.9983 28.841 33.3091 28.841 33.6H26.841ZM38.8122 25.46V23.46H36.8122V25.46H38.8122ZM43.7182 25.46H45.7182V23.46H43.7182V25.46ZM48.6462 25.46V23.46H46.6462V25.46H48.6462ZM53.5522 25.46H55.5522V23.46H53.5522V25.46ZM41.5512 38V36C41.1705 36 40.9672 35.8828 40.8907 35.8172C40.8526 35.7845 40.8367 35.7583 40.8293 35.7424C40.8226 35.7279 40.8122 35.7 40.8122 35.646H38.8122H36.8122C36.8122 38.3895 39.1592 40 41.5512 40V38ZM38.8122 35.646H40.8122V25.46H38.8122H36.8122V35.646H38.8122ZM38.8122 25.46V27.46H43.7182V25.46V23.46H38.8122V25.46ZM43.7182 25.46H41.7182V33.6H43.7182H45.7182V25.46H43.7182ZM43.7182 33.6H41.7182C41.7182 35.4336 43.2428 36.524 44.7412 36.524V34.524V32.524C44.8757 32.524 45.1159 32.5711 45.3461 32.7787C45.5898 32.9983 45.7182 33.3091 45.7182 33.6H43.7182ZM44.7412 34.524V36.524H47.6012V34.524V32.524H44.7412V34.524ZM47.6012 34.524V36.524C49.0662 36.524 50.6462 35.4732 50.6462 33.6H48.6462H46.6462C46.6462 33.2915 46.7859 32.9773 47.0281 32.7638C47.2544 32.5644 47.4827 32.524 47.6012 32.524V34.524ZM48.6462 33.6H50.6462V25.46H48.6462H46.6462V33.6H48.6462ZM48.6462 25.46V27.46H53.5522V25.46V23.46H48.6462V25.46ZM53.5522 25.46H51.5522V35.646H53.5522H55.5522V25.46H53.5522ZM53.5522 35.646H51.5522C51.5522 35.7 51.5419 35.7272 51.5356 35.7406C51.5287 35.7554 51.5134 35.7809 51.4752 35.8136C51.3985 35.8791 51.1893 36 50.7912 36V38V40C53.1939 40 55.5522 38.3991 55.5522 35.646H53.5522ZM50.7912 38V36H41.5512V38V40H50.7912V38ZM65.8452 38L64.1798 39.1073L64.7733 40H65.8452V38ZM63.1392 33.93L64.8047 32.8227L64.2112 31.93H63.1392V33.93ZM61.0492 33.93V31.93H59.0492V33.93H61.0492ZM61.0492 38V40H63.0492V38H61.0492ZM56.0332 38H54.0332V40H56.0332V38ZM56.0332 25.46V23.46H54.0332V25.46H56.0332ZM68.2212 33.842L67.7964 31.8876L64.749 32.5501L66.6223 35.0434L68.2212 33.842ZM71.3452 38V40H75.3495L72.9442 36.7986L71.3452 38ZM61.0492 28.87V26.87H59.0492V28.87H61.0492ZM61.0492 30.74H59.0492V32.74H61.0492V30.74ZM65.8452 38L67.5107 36.8927L64.8047 32.8227L63.1392 33.93L61.4738 35.0373L64.1798 39.1073L65.8452 38ZM63.1392 33.93V31.93H61.0492V33.93V35.93H63.1392V33.93ZM61.0492 33.93H59.0492V38H61.0492H63.0492V33.93H61.0492ZM61.0492 38V36H56.0332V38V40H61.0492V38ZM56.0332 38H58.0332V25.46H56.0332H54.0332V38H56.0332ZM56.0332 25.46V27.46H67.3522V25.46V23.46H56.0332V25.46ZM67.3522 25.46V27.46C68.391 27.46 68.7732 28.0411 68.7732 28.606H70.7732H72.7732C72.7732 25.5189 70.2735 23.46 67.3522 23.46V25.46ZM70.7732 28.606H68.7732V30.784H70.7732H72.7732V28.606H70.7732ZM70.7732 30.784H68.7732C68.7732 31.3124 68.4773 31.7396 67.7964 31.8876L68.2212 33.842L68.6461 35.7964C71.0012 35.2844 72.7732 33.3576 72.7732 30.784H70.7732ZM68.2212 33.842L66.6223 35.0434L69.7463 39.2014L71.3452 38L72.9442 36.7986L69.8202 32.6406L68.2212 33.842ZM71.3452 38V36H65.8452V38V40H71.3452V38ZM61.0492 28.87H59.0492V30.74H61.0492H63.0492V28.87H61.0492ZM61.0492 30.74V32.74H64.9212V30.74V28.74H61.0492V30.74ZM64.9212 30.74V32.74C65.5035 32.74 66.2545 32.6139 66.9011 32.1029C67.6166 31.5374 67.9222 30.7247 67.9222 29.948H65.9222H63.9222C63.9222 29.8343 63.9432 29.6615 64.0311 29.4658C64.1216 29.2643 64.2593 29.0923 64.4209 28.9646C64.7264 28.7231 64.977 28.74 64.9212 28.74V30.74ZM65.9222 29.948H67.9222V29.662H65.9222H63.9222V29.948H65.9222ZM65.9222 29.662H67.9222C67.9222 28.8853 67.6166 28.0726 66.9011 27.5071C66.2545 26.9961 65.5035 26.87 64.9212 26.87V28.87V30.87C64.977 30.87 64.7264 30.8869 64.4209 30.6454C64.2593 30.5177 64.1216 30.3457 64.0311 30.1442C63.9432 29.9485 63.9222 29.7757 63.9222 29.662H65.9222ZM64.9212 28.87V26.87H61.0492V28.87V30.87H64.9212V28.87Z" fill="white" mask="url(#path-10-outside-2_82_213)"/>
</svg>
