<svg width="175" height="99" viewBox="0 0 175 99" fill="none" xmlns="http://www.w3.org/2000/svg">
<rect x="16" y="12" width="146" height="84" rx="21" fill="#F9DA32" stroke="white" stroke-width="2"/>
<path d="M89 0.5C95.9222 0.5 101.5 5.89088 101.5 12.5C101.5 19.1091 95.9222 24.5 89 24.5C82.0778 24.5 76.5 19.1091 76.5 12.5C76.5 5.89088 82.0778 0.5 89 0.5Z" fill="#F9DA32" stroke="white"/>
<path d="M29.5 30.9111C29.5908 31.1906 29.8086 31.4089 30.0879 31.5C29.8089 31.591 29.591 31.8089 29.5 32.0879C29.4089 31.8086 29.1906 31.5908 28.9111 31.5C29.1909 31.4091 29.4091 31.1909 29.5 30.9111Z" stroke="white"/>
<path d="M147 64.5332C147.092 64.7407 147.258 64.9074 147.466 65C147.259 65.0925 147.092 65.2587 147 65.4658C146.907 65.2584 146.741 65.0924 146.533 65C146.741 64.9075 146.907 64.741 147 64.5332Z" stroke="white"/>
<path d="M13.7617 7.00684C15.0699 3.57152 19.9301 3.57153 21.2383 7.00684L22.7822 11.0605C22.9853 11.5938 23.4062 12.0147 23.9395 12.2178L27.9932 13.7617C31.4285 15.0699 31.4285 19.9301 27.9932 21.2383L23.9395 22.7822C23.4062 22.9853 22.9853 23.4062 22.7822 23.9395L21.2383 27.9932C19.9301 31.4285 15.0699 31.4285 13.7617 27.9932L12.2178 23.9395C12.0147 23.4062 11.5938 22.9853 11.0605 22.7822L7.00684 21.2383C3.57152 19.9301 3.57153 15.0699 7.00684 13.7617L11.0605 12.2178C11.5938 12.0147 12.0147 11.5938 12.2178 11.0605L13.7617 7.00684Z" fill="#FDBFBB" stroke="white" stroke-width="2"/>
<path d="M63.6791 47.568C63.6791 46.712 64.0511 46.04 64.7951 45.552C65.5391 45.064 66.3951 44.82 67.3631 44.82C68.6031 44.82 69.6911 45.176 70.6271 45.888C71.0911 46.248 71.4511 46.728 71.7071 47.328C71.9631 47.92 72.0911 48.576 72.0911 49.296C72.0911 50.712 71.6871 51.864 70.8791 52.752C70.0391 53.656 68.9871 54.108 67.7231 54.108C67.4431 54.108 67.1471 54.072 66.8351 54C66.5231 53.928 66.2751 53.832 66.0911 53.712C65.7951 53.936 65.4151 54.048 64.9511 54.048C64.4951 54.048 64.1391 53.92 63.8831 53.664C63.6271 53.408 63.4991 53.08 63.4991 52.68C63.4991 51.736 64.2151 50.932 65.6471 50.268C65.6871 49.932 65.7431 49.48 65.8151 48.912C65.8951 48.336 65.9551 47.872 65.9951 47.52C66.0431 47.168 66.0751 46.936 66.0911 46.824C66.4191 46.616 66.7991 46.512 67.2311 46.512C67.4311 46.512 67.6231 46.532 67.8071 46.572L67.0511 51.696C66.9791 52.152 66.8791 52.532 66.7511 52.836C66.9991 52.9 67.1991 52.932 67.3511 52.932C68.2711 52.932 68.9831 52.584 69.4871 51.888C70.0071 51.16 70.2671 50.28 70.2671 49.248C70.2671 47.928 69.7911 46.98 68.8391 46.404C68.3111 46.084 67.7311 45.924 67.0991 45.924C66.2911 45.924 65.6511 46.144 65.1791 46.584C64.9071 46.832 64.7711 47.132 64.7711 47.484C64.7711 47.668 64.8271 47.844 64.9391 48.012C65.0511 48.172 65.2471 48.264 65.5271 48.288L65.4071 49.068C64.8231 49.036 64.3871 48.876 64.0991 48.588C63.8191 48.292 63.6791 47.952 63.6791 47.568ZM64.3871 52.524C64.3871 52.812 64.5231 52.956 64.7951 52.956C64.9071 52.956 65.0231 52.884 65.1431 52.74C65.2711 52.588 65.3591 52.352 65.4071 52.032L65.5151 51.288C64.7631 51.712 64.3871 52.124 64.3871 52.524ZM74.8888 48.228C75.6248 48.228 76.2368 48.464 76.7248 48.936C77.2208 49.408 77.4688 49.984 77.4688 50.664C77.4688 51.696 77.1648 52.524 76.5568 53.148C75.9568 53.764 75.2288 54.072 74.3728 54.072C73.5168 54.072 72.8368 53.828 72.3328 53.34C71.8368 52.852 71.5888 52.248 71.5888 51.528C71.5888 50.52 71.8968 49.72 72.5128 49.128C73.1368 48.528 73.9288 48.228 74.8888 48.228ZM74.6488 49.2C74.2728 49.2 73.9568 49.416 73.7008 49.848C73.4448 50.28 73.3048 50.824 73.2808 51.48C73.2808 51.944 73.3728 52.328 73.5568 52.632C73.7488 52.936 74.0368 53.088 74.4208 53.088C74.8048 53.088 75.1248 52.876 75.3808 52.452C75.6448 52.028 75.7768 51.544 75.7768 51C75.7768 50.456 75.6848 50.024 75.5008 49.704C75.3168 49.368 75.0328 49.2 74.6488 49.2ZM80.6791 52.656L80.9671 49.98C80.9671 49.764 80.9111 49.584 80.7991 49.44C80.6871 49.296 80.4991 49.224 80.2351 49.224C79.9791 49.224 79.7591 49.34 79.5751 49.572C79.3991 49.796 79.2871 50.08 79.2391 50.424C78.9511 52.616 78.7991 53.808 78.7831 54H77.1631L77.8231 48.348C78.1591 48.26 78.4151 48.216 78.5911 48.216C79.1271 48.216 79.4071 48.412 79.4311 48.804C79.8231 48.42 80.2911 48.228 80.8351 48.228C81.3871 48.228 81.8191 48.364 82.1311 48.636C82.4431 48.908 82.5991 49.252 82.5991 49.668C82.5991 49.78 82.5751 49.992 82.5271 50.304C82.3431 51.52 82.2511 52.228 82.2511 52.428C82.2511 52.796 82.3751 52.98 82.6231 52.98C83.1671 52.98 83.5791 52.412 83.8591 51.276C84.1311 51.564 84.2951 51.792 84.3511 51.96C83.9271 53.368 83.1911 54.072 82.1431 54.072C81.6471 54.072 81.2791 53.92 81.0391 53.616C80.7991 53.312 80.6791 52.992 80.6791 52.656ZM85.1378 44.46C85.1378 44.412 85.1738 44.388 85.2458 44.388H86.5658C86.6298 44.388 86.6618 44.404 86.6618 44.436C86.6618 44.468 86.6578 44.516 86.6498 44.58L86.3018 47.772C86.2938 47.836 86.2538 47.868 86.1818 47.868H85.3898C85.3658 47.868 85.3458 47.772 85.3298 47.58C85.3138 47.38 85.2778 46.852 85.2218 45.996L85.1378 44.46ZM91.9491 45.648C91.9491 45.696 91.8411 46.556 91.6251 48.228H93.3891V49.152H91.5051L91.4691 49.452C92.4051 50.236 92.8731 51.092 92.8731 52.02C92.8731 52.748 92.6851 53.272 92.3091 53.592C91.9411 53.912 91.4971 54.072 90.9771 54.072C90.4571 54.072 90.0771 53.936 89.8371 53.664C89.5971 53.384 89.4771 53.048 89.4771 52.656C89.4771 52.568 89.4851 52.472 89.5011 52.368L89.8731 49.176L89.8251 49.152H88.8531C88.8451 49.072 88.8411 48.944 88.8411 48.768C88.8411 48.584 88.8771 48.404 88.9491 48.228H89.9811L90.3651 44.964C90.5331 44.9 90.7571 44.868 91.0371 44.868C91.6451 44.868 91.9491 45.128 91.9491 45.648ZM92.0691 52.008C92.0691 51.456 91.8291 50.912 91.3491 50.376C91.2051 51.568 91.1331 52.256 91.1331 52.44C91.1331 52.8 91.2491 52.98 91.4811 52.98C91.6491 52.98 91.7891 52.904 91.9011 52.752C92.0131 52.592 92.0691 52.344 92.0691 52.008ZM99.1788 47.952C99.4188 47.592 99.5388 47.256 99.5388 46.944C99.5388 46.632 99.4508 46.384 99.2748 46.2C99.0988 46.016 98.8668 45.924 98.5788 45.924C98.2908 45.924 98.0588 45.996 97.8828 46.14C97.7068 46.276 97.6188 46.496 97.6188 46.8C97.6188 47.096 97.8268 47.632 98.2428 48.408C98.6588 49.184 98.9228 49.684 99.0348 49.908C99.3388 50.516 99.4908 51.104 99.4908 51.672C99.4908 52.384 99.2308 52.964 98.7108 53.412C98.1988 53.852 97.5908 54.072 96.8868 54.072C96.1908 54.072 95.6428 53.856 95.2428 53.424C94.8428 52.984 94.6428 52.472 94.6428 51.888C94.6428 50.808 95.3108 49.916 96.6468 49.212C96.1028 48.14 95.8308 47.392 95.8308 46.968C95.8308 46.376 96.0668 45.876 96.5388 45.468C97.0188 45.052 97.6028 44.844 98.2908 44.844C98.9868 44.844 99.5188 45.02 99.8868 45.372C100.255 45.724 100.439 46.172 100.439 46.716C100.439 47.076 100.319 47.488 100.079 47.952H99.1788ZM96.0348 52.632C96.2508 52.864 96.5108 52.98 96.8148 52.98C97.1268 52.98 97.3668 52.892 97.5348 52.716C97.7108 52.532 97.7988 52.264 97.7988 51.912C97.7988 51.592 97.6748 51.2 97.4268 50.736C97.3948 50.672 97.3348 50.556 97.2468 50.388C97.1588 50.212 97.0948 50.088 97.0548 50.016C96.1588 50.48 95.7108 51.064 95.7108 51.768C95.7108 52.128 95.8188 52.416 96.0348 52.632ZM105.134 49.68C105.134 50.512 104.638 51.148 103.646 51.588C103.67 51.732 103.706 51.904 103.754 52.104C103.898 52.696 104.138 53 104.474 53.016C104.498 53.016 104.522 53.016 104.546 53.016C105.186 53.016 105.662 52.452 105.974 51.324C106.142 51.476 106.302 51.704 106.454 52.008C106.342 52.44 106.182 52.804 105.974 53.1C105.774 53.396 105.554 53.608 105.314 53.736C104.89 53.96 104.49 54.072 104.114 54.072C103.234 54.072 102.618 53.58 102.266 52.596C102.13 52.204 102.038 51.804 101.99 51.396C102.446 51.284 102.806 51.1 103.07 50.844C103.334 50.58 103.466 50.3 103.466 50.004C103.466 49.492 103.21 49.236 102.698 49.236C102.418 49.236 102.178 49.344 101.978 49.56C101.778 49.768 101.646 50.02 101.582 50.316C101.534 50.724 101.454 51.368 101.342 52.248C101.238 53.12 101.17 53.704 101.138 54H99.5422C100.118 49.096 100.466 46.084 100.586 44.964C100.754 44.9 100.982 44.868 101.27 44.868C101.894 44.868 102.206 45.052 102.206 45.42V45.492C102.046 46.94 101.898 48.048 101.762 48.816C102.202 48.408 102.754 48.204 103.418 48.204C103.914 48.204 104.322 48.332 104.642 48.588C104.97 48.844 105.134 49.208 105.134 49.68ZM105.843 45.168C106.027 44.976 106.251 44.88 106.515 44.88C106.779 44.88 107.003 44.976 107.187 45.168C107.379 45.352 107.475 45.576 107.475 45.84C107.475 46.104 107.379 46.328 107.187 46.512C107.003 46.696 106.779 46.788 106.515 46.788C106.251 46.788 106.027 46.696 105.843 46.512C105.659 46.328 105.567 46.104 105.567 45.84C105.567 45.576 105.659 45.352 105.843 45.168ZM105.351 48.684C105.431 48.54 105.583 48.432 105.807 48.36C106.031 48.28 106.251 48.24 106.467 48.24C106.691 48.24 106.887 48.268 107.055 48.324C106.743 50.732 106.587 51.948 106.587 51.972C106.547 52.132 106.527 52.268 106.527 52.38C106.527 52.484 106.535 52.576 106.551 52.656C106.583 52.864 106.727 52.968 106.983 52.968C107.247 52.968 107.487 52.8 107.703 52.464C107.927 52.12 108.095 51.732 108.207 51.3C108.263 51.332 108.351 51.428 108.471 51.588C108.591 51.748 108.663 51.868 108.687 51.948C108.527 52.588 108.255 53.104 107.871 53.496C107.487 53.888 107.027 54.084 106.491 54.084C105.955 54.084 105.555 53.952 105.291 53.688C105.035 53.424 104.907 53.084 104.907 52.668C104.907 52.58 104.911 52.488 104.919 52.392L105.351 48.684ZM108.309 48.216C108.829 48.216 109.133 48.348 109.221 48.612C109.597 48.348 110.073 48.216 110.649 48.216C111.225 48.216 111.721 48.452 112.137 48.924C112.553 49.396 112.761 49.948 112.761 50.58C112.761 50.668 112.757 50.76 112.749 50.856C112.661 51.904 112.309 52.704 111.693 53.256C111.077 53.8 110.273 54.072 109.281 54.072C109.057 54.072 108.813 54.044 108.549 53.988L108.165 57.288H106.593C107.105 52.88 107.449 49.888 107.625 48.312C107.793 48.248 108.021 48.216 108.309 48.216ZM111.069 50.664C111.069 50.312 110.989 50 110.829 49.728C110.669 49.456 110.421 49.32 110.085 49.32C109.629 49.32 109.281 49.616 109.041 50.208C108.881 51.392 108.789 52.08 108.765 52.272C108.757 52.512 108.833 52.692 108.993 52.812C109.153 52.932 109.349 52.992 109.581 52.992C109.989 52.992 110.325 52.808 110.589 52.44C110.909 51.984 111.069 51.392 111.069 50.664ZM58.2987 58.284L58.2867 58.488C58.2627 58.864 58.1507 59.792 57.9507 61.272C57.7027 63.048 57.5787 63.976 57.5787 64.056C57.5787 64.296 57.6547 64.5 57.8067 64.668C57.9587 64.828 58.1587 64.908 58.4067 64.908C58.6627 64.908 58.8947 64.824 59.1027 64.656C59.3187 64.48 59.4827 64.272 59.5947 64.032L60.2667 57.9C60.3067 57.532 60.4547 57.268 60.7107 57.108C60.9747 56.94 61.2507 56.856 61.5387 56.856C61.7307 56.856 61.9307 56.896 62.1387 56.976L61.3347 63.624C62.3907 63.136 63.0427 62.848 63.2907 62.76L63.4707 63.6C62.7667 63.888 62.0187 64.22 61.2267 64.596L60.9267 67.044C60.8787 67.476 60.7707 67.844 60.6027 68.148C60.4427 68.46 60.2467 68.696 60.0147 68.856C59.5907 69.144 59.1267 69.288 58.6227 69.288C58.1267 69.288 57.7107 69.104 57.3747 68.736C57.0467 68.376 56.8827 67.94 56.8827 67.428C56.8827 66.916 57.0507 66.452 57.3867 66.036C56.9627 65.964 56.6107 65.78 56.3307 65.484C56.0507 65.18 55.9107 64.808 55.9107 64.368C55.9107 64.32 55.9187 64.232 55.9347 64.104L56.3187 61.152C55.3347 60.528 54.8427 59.76 54.8427 58.848C54.8427 58 55.1507 57.416 55.7667 57.096C56.0547 56.936 56.3827 56.856 56.7507 56.856C57.1267 56.856 57.4787 56.976 57.8067 57.216C58.1347 57.448 58.2987 57.804 58.2987 58.284ZM56.3067 57.828C56.1147 57.828 55.9547 57.92 55.8267 58.104C55.7067 58.288 55.6467 58.508 55.6467 58.764C55.6467 59.324 55.9107 59.784 56.4387 60.144L56.6667 58.416C56.6667 58.088 56.5867 57.896 56.4267 57.84C56.3947 57.832 56.3547 57.828 56.3067 57.828ZM57.7947 67.272C57.7947 67.536 57.8587 67.74 57.9867 67.884C58.1227 68.028 58.2827 68.1 58.4667 68.1C58.6507 68.1 58.8147 68.032 58.9587 67.896C59.1027 67.768 59.1907 67.584 59.2227 67.344L59.4387 65.46C58.3427 66.06 57.7947 66.664 57.7947 67.272ZM65.0853 60.228C65.8213 60.228 66.4333 60.464 66.9213 60.936C67.4173 61.408 67.6653 61.984 67.6653 62.664C67.6653 63.696 67.3613 64.524 66.7533 65.148C66.1533 65.764 65.4253 66.072 64.5693 66.072C63.7133 66.072 63.0333 65.828 62.5293 65.34C62.0333 64.852 61.7853 64.248 61.7853 63.528C61.7853 62.52 62.0933 61.72 62.7093 61.128C63.3333 60.528 64.1253 60.228 65.0853 60.228ZM64.8453 61.2C64.4693 61.2 64.1533 61.416 63.8973 61.848C63.6413 62.28 63.5013 62.824 63.4773 63.48C63.4773 63.944 63.5693 64.328 63.7533 64.632C63.9453 64.936 64.2333 65.088 64.6173 65.088C65.0013 65.088 65.3213 64.876 65.5773 64.452C65.8413 64.028 65.9733 63.544 65.9733 63C65.9733 62.456 65.8813 62.024 65.6973 61.704C65.5133 61.368 65.2293 61.2 64.8453 61.2ZM72.8077 60.348C72.4797 62.94 72.3157 64.32 72.3157 64.488C72.3157 64.808 72.4317 64.968 72.6637 64.968C72.8717 64.968 73.0957 64.828 73.3357 64.548C73.5837 64.26 73.7797 63.832 73.9237 63.264C74.1877 63.552 74.3477 63.776 74.4037 63.936C74.2197 64.712 73.9277 65.26 73.5277 65.58C73.1277 65.9 72.7157 66.06 72.2917 66.06C71.5957 66.06 71.1277 65.792 70.8877 65.256C70.4717 65.792 69.9157 66.06 69.2197 66.06C68.6437 66.06 68.1997 65.916 67.8877 65.628C67.5757 65.34 67.4197 64.964 67.4197 64.5C67.4197 64.388 67.4397 64.192 67.4797 63.912C67.6637 62.424 67.8037 61.24 67.8997 60.36C68.1477 60.272 68.3757 60.228 68.5837 60.228C68.7917 60.228 68.9477 60.236 69.0517 60.252C69.1557 60.268 69.2557 60.328 69.3517 60.432C69.4477 60.536 69.4957 60.684 69.4957 60.876L69.0997 63.936C69.0837 64.032 69.0757 64.12 69.0757 64.2C69.0757 64.672 69.2917 64.908 69.7237 64.908C70.1237 64.908 70.4557 64.712 70.7197 64.32C70.7197 64.232 70.7277 64.092 70.7437 63.9L71.1397 60.708C71.1957 60.572 71.3157 60.46 71.4997 60.372C71.6837 60.276 71.9117 60.228 72.1837 60.228C72.4637 60.228 72.6717 60.268 72.8077 60.348ZM76.3577 61.8C76.3577 61.448 76.1937 61.272 75.8657 61.272C75.5457 61.272 75.2897 61.48 75.0977 61.896C75.9617 62.576 76.3937 63.34 76.3937 64.188C76.3937 64.804 76.2217 65.272 75.8777 65.592C75.5337 65.912 75.1017 66.072 74.5817 66.072C74.0617 66.072 73.6817 65.912 73.4417 65.592C73.2017 65.264 73.0817 64.852 73.0817 64.356C73.0817 64.204 73.0857 64.092 73.0937 64.02L73.5137 60.36C73.8017 60.272 74.0937 60.228 74.3897 60.228C74.8777 60.228 75.1217 60.408 75.1217 60.768V60.792C75.4417 60.416 75.8497 60.228 76.3457 60.228C76.7057 60.228 76.9857 60.312 77.1857 60.48C77.3857 60.64 77.4857 60.856 77.4857 61.128C77.4857 61.4 77.3817 61.624 77.1737 61.8C76.9737 61.968 76.7097 62.052 76.3817 62.052C76.3657 62.052 76.3497 62.052 76.3337 62.052C76.3497 61.964 76.3577 61.88 76.3577 61.8ZM75.6137 64.128C75.6137 63.664 75.3737 63.2 74.8937 62.736C74.7497 63.888 74.6777 64.468 74.6777 64.476C74.6777 64.812 74.8137 64.98 75.0857 64.98C75.4377 64.98 75.6137 64.696 75.6137 64.128ZM79.0678 59.508C79.0678 58.748 79.4038 58.12 80.0758 57.624C80.7478 57.12 81.6358 56.868 82.7398 56.868C83.3238 56.868 83.8478 56.928 84.3118 57.048C84.7758 57.16 85.1438 57.304 85.4158 57.48C85.6878 57.656 85.9158 57.86 86.0998 58.092C86.4038 58.492 86.5518 58.94 86.5438 59.436C86.5438 59.924 86.3518 60.36 85.9678 60.744C85.5838 61.128 85.1198 61.328 84.5758 61.344C85.2558 61.392 85.8438 61.616 86.3398 62.016C86.8438 62.416 87.0958 62.92 87.0958 63.528C87.0958 64.328 86.7878 64.952 86.1718 65.4C85.5558 65.848 84.8038 66.072 83.9158 66.072C83.0358 66.072 82.4358 65.956 82.1158 65.724L82.4878 64.716C82.8398 64.9 83.2478 64.992 83.7118 64.992C84.1838 64.992 84.5678 64.856 84.8638 64.584C85.1598 64.304 85.3078 63.936 85.3078 63.48C85.3078 63.024 85.1038 62.64 84.6958 62.328C84.2958 62.016 83.7478 61.86 83.0518 61.86L83.1598 60.972C83.6398 60.972 84.0438 60.86 84.3718 60.636C84.7078 60.404 84.8798 60.06 84.8878 59.604C84.9038 59.148 84.6998 58.764 84.2758 58.452C83.8198 58.124 83.1958 57.96 82.4038 57.96C81.8838 57.96 81.3758 58.096 80.8798 58.368C80.3838 58.632 80.1358 58.988 80.1358 59.436C80.1358 59.652 80.2238 59.836 80.3998 59.988C80.5758 60.132 80.8078 60.22 81.0958 60.252L80.9638 61.14C80.3558 61.116 79.8878 60.944 79.5598 60.624C79.2318 60.304 79.0678 59.932 79.0678 59.508ZM82.4998 63.696C82.3718 64.552 82.1238 65.16 81.7558 65.52C81.3878 65.872 80.9558 66.048 80.4598 66.048C79.9638 66.048 79.5878 65.92 79.3318 65.664C79.0758 65.408 78.9478 65.08 78.9478 64.68C78.9478 63.736 79.6638 62.932 81.0958 62.268C81.1358 61.932 81.1918 61.48 81.2638 60.912C81.3438 60.336 81.4038 59.872 81.4438 59.52C81.4918 59.168 81.5238 58.936 81.5398 58.824C81.8678 58.616 82.2478 58.512 82.6798 58.512C82.8798 58.512 83.0718 58.532 83.2558 58.572L82.4998 63.696ZM79.8358 64.524C79.8358 64.812 79.9718 64.956 80.2438 64.956C80.3558 64.956 80.4718 64.884 80.5918 64.74C80.7198 64.588 80.8078 64.352 80.8558 64.032L80.9638 63.288C80.2118 63.712 79.8358 64.124 79.8358 64.524ZM90.2641 61.8C90.2641 61.448 90.1001 61.272 89.7721 61.272C89.4521 61.272 89.1961 61.48 89.0041 61.896C89.8681 62.576 90.3001 63.34 90.3001 64.188C90.3001 64.804 90.1281 65.272 89.7841 65.592C89.4401 65.912 89.0081 66.072 88.4881 66.072C87.9681 66.072 87.5881 65.912 87.3481 65.592C87.1081 65.264 86.9881 64.852 86.9881 64.356C86.9881 64.204 86.9921 64.092 87.0001 64.02L87.4201 60.36C87.7081 60.272 88.0001 60.228 88.2961 60.228C88.7841 60.228 89.0281 60.408 89.0281 60.768V60.792C89.3481 60.416 89.7561 60.228 90.2521 60.228C90.6121 60.228 90.8921 60.312 91.0921 60.48C91.2921 60.64 91.3921 60.856 91.3921 61.128C91.3921 61.4 91.2881 61.624 91.0801 61.8C90.8801 61.968 90.6161 62.052 90.2881 62.052C90.2721 62.052 90.2561 62.052 90.2401 62.052C90.2561 61.964 90.2641 61.88 90.2641 61.8ZM89.5201 64.128C89.5201 63.664 89.2801 63.2 88.8001 62.736C88.6561 63.888 88.5841 64.468 88.5841 64.476C88.5841 64.812 88.7201 64.98 88.9921 64.98C89.3441 64.98 89.5201 64.696 89.5201 64.128ZM93.1814 63.312C93.6774 63.208 94.0454 63.008 94.2854 62.712C94.5334 62.416 94.6574 62.132 94.6574 61.86C94.6574 61.58 94.5814 61.392 94.4294 61.296C94.2854 61.192 94.1254 61.14 93.9494 61.14C93.5734 61.14 93.2414 61.352 92.9534 61.776C92.6734 62.192 92.5334 62.692 92.5334 63.276C92.5334 63.852 92.6694 64.284 92.9414 64.572C93.2214 64.852 93.5654 64.992 93.9734 64.992C94.5734 64.992 95.1494 64.784 95.7014 64.368C96.2534 63.952 96.7014 63.408 97.0454 62.736C97.2214 62.904 97.3814 63.112 97.5254 63.36C97.2614 63.96 96.7934 64.548 96.1214 65.124C95.7854 65.404 95.3854 65.632 94.9214 65.808C94.4654 65.984 93.9934 66.072 93.5054 66.072C92.7054 66.072 92.0734 65.828 91.6094 65.34C91.1134 64.812 90.8654 64.136 90.8654 63.312C90.8654 62.488 91.1734 61.768 91.7894 61.152C92.4134 60.536 93.1574 60.228 94.0214 60.228C94.6374 60.228 95.1374 60.364 95.5214 60.636C95.9054 60.9 96.1014 61.26 96.1094 61.716C96.1094 62.332 95.8614 62.832 95.3654 63.216C94.8774 63.6 94.2054 63.868 93.3494 64.02L93.1814 63.312ZM100.667 64.092C100.667 64.668 100.911 64.956 101.399 64.956C101.415 64.956 101.427 64.956 101.435 64.956C101.659 64.956 101.859 64.836 102.035 64.596C102.211 64.356 102.343 64.056 102.431 63.696C102.623 62.96 102.719 62.292 102.719 61.692H102.611C102.275 61.692 102.015 61.616 101.831 61.464C101.639 61.288 101.543 61.076 101.543 60.828C101.543 60.58 101.619 60.38 101.771 60.228C101.955 60.06 102.183 59.976 102.455 59.976C103.047 59.976 103.447 60.28 103.655 60.888C104.215 60.752 104.807 60.564 105.431 60.324V61.008C104.839 61.232 104.287 61.404 103.775 61.524C103.783 61.588 103.787 61.68 103.787 61.8C103.755 63.456 103.367 64.656 102.623 65.4C102.183 65.84 101.611 66.06 100.907 66.06C100.211 66.06 99.6913 65.764 99.3473 65.172C98.9553 65.772 98.3553 66.072 97.5473 66.072C97.0673 66.072 96.6713 65.904 96.3593 65.568C96.0553 65.224 95.9033 64.82 95.9033 64.356C95.9033 64.276 95.9073 64.18 95.9153 64.068C96.0833 62.676 96.2233 61.444 96.3353 60.372C96.6233 60.276 96.8753 60.228 97.0913 60.228C97.6593 60.228 97.9433 60.424 97.9433 60.816C97.9433 60.968 97.8833 61.492 97.7633 62.388C97.6113 63.516 97.5353 64.152 97.5353 64.296C97.5353 64.432 97.5873 64.568 97.6913 64.704C97.8033 64.84 97.9593 64.908 98.1593 64.908C98.3673 64.908 98.5513 64.816 98.7113 64.632C98.8713 64.448 98.9873 64.224 99.0593 63.96L99.4793 60.372C99.7353 60.276 100.007 60.228 100.295 60.228C100.815 60.228 101.075 60.424 101.075 60.816C101.075 60.96 101.019 61.428 100.907 62.22C100.747 63.34 100.667 63.964 100.667 64.092ZM102.227 60.828C102.227 60.964 102.343 61.032 102.575 61.032C102.599 61.032 102.623 61.032 102.647 61.032C102.591 60.816 102.507 60.708 102.395 60.708C102.283 60.708 102.227 60.748 102.227 60.828ZM107.48 61.932C107.48 61.412 107.248 61.152 106.784 61.152C106.44 61.152 106.132 61.348 105.86 61.74C105.572 62.164 105.428 62.66 105.428 63.228C105.428 63.796 105.552 64.236 105.8 64.548C106.056 64.852 106.404 65.004 106.844 65.004C107.372 65.004 107.928 64.788 108.512 64.356C109.104 63.924 109.58 63.388 109.94 62.748C110.1 62.868 110.256 63.088 110.408 63.408C110.176 63.872 109.744 64.392 109.112 64.968C108.784 65.272 108.376 65.528 107.888 65.736C107.36 65.96 106.832 66.072 106.304 66.072C105.592 66.072 104.988 65.828 104.492 65.34C104.004 64.852 103.76 64.216 103.76 63.432C103.76 62.48 104.08 61.708 104.72 61.116C105.36 60.524 106.076 60.228 106.868 60.228C107.484 60.228 107.972 60.356 108.332 60.612C108.692 60.868 108.872 61.204 108.872 61.62C108.872 61.892 108.776 62.128 108.584 62.328C108.232 62.68 107.804 62.856 107.3 62.856C107.42 62.456 107.48 62.148 107.48 61.932ZM111.905 64.632L112.193 61.98C112.193 61.764 112.137 61.584 112.025 61.44C111.913 61.296 111.733 61.224 111.485 61.224C111.237 61.224 111.025 61.324 110.849 61.524C110.681 61.716 110.557 61.972 110.477 62.292C110.421 62.748 110.337 63.416 110.225 64.296C110.113 65.168 110.041 65.736 110.009 66H108.413C108.989 61.096 109.337 58.084 109.457 56.964C109.625 56.9 109.853 56.868 110.141 56.868C110.765 56.868 111.077 57.052 111.077 57.42V57.492C110.941 58.748 110.797 59.852 110.645 60.804C111.069 60.42 111.549 60.228 112.085 60.228C112.621 60.228 113.045 60.364 113.357 60.636C113.669 60.908 113.825 61.252 113.825 61.668C113.825 61.78 113.801 61.988 113.753 62.292C113.569 63.492 113.477 64.196 113.477 64.404C113.477 64.78 113.601 64.968 113.849 64.968C114.057 64.968 114.277 64.832 114.509 64.56C114.749 64.28 114.941 63.852 115.085 63.276C115.357 63.564 115.521 63.792 115.577 63.96C115.161 65.352 114.425 66.048 113.369 66.048C112.873 66.048 112.505 65.896 112.265 65.592C112.025 65.288 111.905 64.968 111.905 64.632ZM119.214 66.06C118.478 66.06 117.99 65.804 117.75 65.292C117.334 65.812 116.798 66.072 116.142 66.072C115.494 66.072 114.946 65.852 114.498 65.412C114.058 64.972 113.838 64.392 113.838 63.672C113.838 62.624 114.146 61.788 114.762 61.164C115.378 60.54 116.158 60.228 117.102 60.228C117.126 60.228 117.15 60.228 117.174 60.228C117.574 60.228 117.942 60.296 118.278 60.432C118.494 60.296 118.754 60.228 119.058 60.228C119.37 60.228 119.594 60.268 119.73 60.348C119.658 60.94 119.582 61.524 119.502 62.1C119.422 62.668 119.366 63.072 119.334 63.312C119.262 63.856 119.226 64.248 119.226 64.488C119.226 64.808 119.354 64.968 119.61 64.968C119.81 64.968 120.022 64.836 120.246 64.572C120.47 64.3 120.666 63.876 120.834 63.3C121.066 63.508 121.226 63.74 121.314 63.996C121.082 64.756 120.77 65.292 120.378 65.604C119.986 65.908 119.598 66.06 119.214 66.06ZM117.282 61.164C116.77 61.164 116.362 61.36 116.058 61.752C115.762 62.136 115.586 62.712 115.53 63.48C115.522 63.552 115.518 63.62 115.518 63.684C115.518 64.076 115.61 64.388 115.794 64.62C115.986 64.852 116.23 64.968 116.526 64.968C117.03 64.968 117.41 64.612 117.666 63.9L117.954 61.308C117.722 61.212 117.498 61.164 117.282 61.164ZM121.204 56.028C121.364 55.948 121.644 55.908 122.044 55.908C122.828 55.908 123.22 56.092 123.22 56.46C123.22 56.492 123.216 56.528 123.208 56.568L121.72 62.856H120.436L121.204 56.028ZM120.076 64.56C120.268 64.368 120.5 64.272 120.772 64.272C121.044 64.272 121.276 64.368 121.468 64.56C121.66 64.752 121.756 64.984 121.756 65.256C121.756 65.528 121.66 65.76 121.468 65.952C121.276 66.136 121.044 66.228 120.772 66.228C120.5 66.228 120.268 66.136 120.076 65.952C119.892 65.76 119.8 65.528 119.8 65.256C119.8 64.984 119.892 64.752 120.076 64.56Z" fill="#FEF4D9"/>
<path d="M63.8597 36L62.5067 33.965H61.4617V36H58.9537V29.73H64.6132C65.6032 29.73 66.3237 30.39 66.3237 31.303V32.392C66.3237 33.1675 65.8067 33.756 65.0477 33.921L66.6097 36H63.8597ZM61.4617 31.435V32.37H63.3977C63.7167 32.37 63.8982 32.227 63.8982 31.974V31.831C63.8982 31.578 63.7167 31.435 63.3977 31.435H61.4617ZM67.1595 36V29.73H74.0895V31.3525H69.6675V32.1225H72.5495V33.6075H69.6675V34.3775H74.0895V36H67.1595ZM80.274 29.73H82.9415V36H80.659V32.26L78.9815 34.746L77.304 32.26V36H75.0215V29.73H77.689L78.9815 31.7595L80.274 29.73ZM84.2585 36V29.73H86.7665V36H84.2585ZM93.1689 29.73H95.4514V36H92.7234L90.3694 32.425V36H88.0814V29.73H90.8094L93.1689 33.36V29.73ZM102.43 29.73C103.42 29.73 104.141 30.39 104.141 31.303V34.438C104.141 35.3455 103.42 36 102.43 36H96.7705V29.73H102.43ZM101.688 33.8055V31.9465C101.688 31.6715 101.468 31.4735 101.165 31.4735L99.2785 31.4625V34.2675H101.165C101.468 34.2675 101.688 34.075 101.688 33.8055ZM105.299 36V29.73H112.229V31.3525H107.807V32.1225H110.689V33.6075H107.807V34.3775H112.229V36H105.299ZM118.067 36L116.714 33.965H115.669V36H113.161V29.73H118.82C119.81 29.73 120.531 30.39 120.531 31.303V32.392C120.531 33.1675 120.014 33.756 119.255 33.921L120.817 36H118.067ZM115.669 31.435V32.37H117.605C117.924 32.37 118.105 32.227 118.105 31.974V31.831C118.105 31.578 117.924 31.435 117.605 31.435H115.669Z" fill="#FEF4D9"/>
<path d="M76.7276 91C76.0076 91 75.4826 90.55 75.4826 89.93V86.38C75.4826 85.755 76.0076 85.3 76.7276 85.3H80.9276C81.6576 85.3 82.1826 85.76 82.1826 86.38V89.93C82.1826 90.55 81.6576 91 80.9276 91H76.7276ZM78.1776 89.42H79.4776C79.7526 89.42 79.9526 89.245 79.9526 89V87.31C79.9526 87.06 79.7526 86.88 79.4776 86.88H78.1776C77.9076 86.88 77.7126 87.06 77.7126 87.31V89C77.7126 89.245 77.9076 89.42 78.1776 89.42ZM87.7891 87.8L90.1941 91H87.6541L86.1141 88.93H85.5091V91H83.2291V85.3H85.5091V87.725L87.3541 85.3H89.8441L87.7891 87.8ZM95.2732 91L94.9332 90.05H92.5532L92.2132 91H89.9682L92.2032 85.3H95.2832L97.5182 91H95.2732ZM93.0482 88.65H94.4332L93.7382 86.71L93.0482 88.65ZM100.992 85.3H103.222L100.837 89.13V91H98.5571V89.13L96.1721 85.3H98.4021L99.6971 87.745L100.992 85.3Z" fill="#FEF4D9"/>
<path d="M90.4897 17.9C91.0662 17.9 91.3708 18.6168 90.9863 19.0676C90.7362 19.3609 90.4301 19.5956 90.0878 19.7563C89.7456 19.9169 89.3749 20 89 20C88.6251 20 88.2545 19.9169 87.9122 19.7563C87.57 19.5956 87.2638 19.3609 87.0138 19.0676C86.6458 18.6364 86.9084 17.9623 87.4363 17.9049L87.5097 17.9007L90.4897 17.9ZM89 6C89.9052 6 90.6703 6.6321 90.9163 7.4987L90.9469 7.6184L90.9523 7.6485C91.6871 8.0837 92.3134 8.6956 92.7796 9.43406C93.2458 10.1725 93.5387 11.0165 93.6344 11.8968L93.653 12.0977L93.6657 12.3V14.3517L93.6797 14.4469C93.771 14.9627 94.0427 15.4239 94.4415 15.7398L94.5528 15.8217L94.6608 15.891C95.234 16.2319 95.0341 17.1272 94.4095 17.1958L94.3322 17.2H83.6678C82.9826 17.2 82.7433 16.2452 83.3392 15.891C83.5932 15.7401 83.8126 15.5326 83.9821 15.2831C84.1516 15.0336 84.267 14.7482 84.3203 14.4469L84.3343 14.3468L84.335 12.2678C84.3756 11.3535 84.629 10.4636 85.073 9.67603C85.517 8.88843 86.1381 8.22712 86.8818 7.75L87.0471 7.6478L87.0538 7.6177C87.1478 7.19898 87.362 6.82069 87.6674 6.53399C87.9728 6.24729 88.3547 6.06602 88.7614 6.0147L88.8827 6.0028L89 6Z" fill="#FEF4D9"/>
<line x1="17" y1="80.5" x2="161" y2="80.5" stroke="white"/>
<path d="M153.776 71.7607C155.104 68.3739 159.896 68.3739 161.224 71.7607L162.767 75.6943C162.975 76.2254 163.4 76.6429 163.935 76.8408L167.74 78.248C171.223 79.5364 171.223 84.4636 167.74 85.752L163.935 87.1592C163.4 87.3571 162.975 87.7746 162.767 88.3057L161.224 92.2393C159.896 95.6261 155.104 95.6261 153.776 92.2393L152.233 88.3057C152.025 87.7746 151.6 87.3571 151.065 87.1592L147.26 85.752C143.777 84.4636 143.777 79.5364 147.26 78.248L151.065 76.8408C151.6 76.6429 152.025 76.2254 152.233 75.6943L153.776 71.7607Z" fill="#FDBFBB" stroke="white" stroke-width="2"/>
</svg>
