<svg width="125" height="142" viewBox="0 0 125 142" fill="none" xmlns="http://www.w3.org/2000/svg">
<path d="M111.983 142H12.6992C9.33215 141.996 6.10409 140.657 3.72331 138.276C1.34254 135.895 0.00349895 132.667 0 129.3L0 12.6992C0.00379049 9.33234 1.34296 6.10444 3.7237 3.7237C6.10444 1.34296 9.33234 0.00379049 12.6992 0L105.066 0L124.682 15.6347V129.3C124.679 132.667 123.339 135.895 120.959 138.276C118.578 140.657 115.35 141.996 111.983 142Z" fill="#D9D9D9"/>
<path d="M12.6995 3.65625C10.3019 3.65897 8.00332 4.61262 6.30797 6.30797C4.61262 8.00332 3.65897 10.3019 3.65625 12.6995V129.3C3.65897 131.698 4.61262 133.996 6.30797 135.692C8.00332 137.387 10.3019 138.341 12.6995 138.343H111.983C114.381 138.341 116.679 137.387 118.375 135.692C120.07 133.996 121.024 131.698 121.026 129.3V17.3965L103.788 3.65625H12.6995Z" fill="#F9F9F7"/>
<path d="M124.3 16.1383H108.935C107.813 16.1383 106.737 15.6927 105.944 14.8995C105.151 14.1063 104.705 13.0305 104.705 11.9087V0.560129C104.705 0.510451 104.719 0.461786 104.746 0.419713C104.772 0.377639 104.81 0.343858 104.854 0.322241C104.899 0.300625 104.949 0.292047 104.998 0.297491C105.048 0.302935 105.095 0.322181 105.134 0.353022L124.464 15.6657C124.507 15.6998 124.539 15.7464 124.554 15.7991C124.569 15.8518 124.568 15.9079 124.55 15.9597C124.532 16.0115 124.498 16.0564 124.453 16.0882C124.408 16.12 124.355 16.1371 124.3 16.1372V16.1383Z" fill="#D9D9D9"/>
<path d="M16.1055 79V62.0898H20.1836L24.9648 74.2891H25.0703L29.8398 62.0898H33.918V79H30.7656V67.5508H29.1133L32.6289 62.5586L26.125 79H23.8984L17.4062 62.5586L20.9102 67.5508H19.2578V79H16.1055ZM34.6516 79L40.5578 62.0898H43.6633V65.3945H42.5852L38.3781 79H34.6516ZM37.8273 74.8984L38.6945 72.25H46.5695L47.4367 74.8984H37.8273ZM46.8977 79L42.6906 65.3945V62.0898H44.718L50.6125 79H46.8977ZM51.3461 79V62.0898H54.4164L63.5219 75.1094L60.6391 73.0469H62.1742V62.0898H65.6781V79H62.6312L53.5141 65.9219L56.3852 67.9727H54.85V79H51.3461ZM74.6148 79.3164C73.1773 79.3164 71.9273 79.0586 70.8648 78.543C69.8023 78.0195 68.982 77.2891 68.4039 76.3516C67.8258 75.4062 67.5367 74.3047 67.5367 73.0469V62.0898H71.0758V72.7305C71.0758 73.4648 71.2125 74.1016 71.4859 74.6406C71.7672 75.1719 72.1695 75.5859 72.693 75.8828C73.2242 76.1719 73.8688 76.3164 74.6266 76.3164C75.3844 76.3164 76.025 76.1719 76.5484 75.8828C77.0797 75.5859 77.482 75.1719 77.7555 74.6406C78.0289 74.1016 78.1656 73.4648 78.1656 72.7305V62.0898H81.7047V73.0469C81.7047 74.2969 81.4156 75.3945 80.8375 76.3398C80.2594 77.2773 79.4391 78.0078 78.3766 78.5312C77.3219 79.0547 76.068 79.3164 74.6148 79.3164ZM81.9812 79L87.8875 62.0898H90.993V65.3945H89.9148L85.7078 79H81.9812ZM85.157 74.8984L86.0242 72.25H93.8992L94.7664 74.8984H85.157ZM94.2273 79L90.0203 65.3945V62.0898H92.0477L97.9422 79H94.2273ZM98.6758 79V62.0898H102.215V76.082H109.633V79H98.6758Z" fill="#ACDEE7"/>
</svg>
